<mxfile host="Electron" agent="Mozilla/5.0 (X11; Linux x86_64) AppleWebKit/537.36 (KHTML, like Gecko) draw.io/24.7.17 Chrome/128.0.6613.36 Electron/32.0.1 Safari/537.36" version="24.7.17">
  <diagram name="Page-1" id="z21JWjyaFKq3qbe_O663">
    <mxGraphModel dx="2607" dy="1582" grid="1" gridSize="10" guides="1" tooltips="1" connect="1" arrows="1" fold="1" page="1" pageScale="1" pageWidth="827" pageHeight="1169" math="0" shadow="0">
      <root>
        <mxCell id="0" />
        <mxCell id="1" parent="0" />
        <mxCell id="0u_ndoLw2zuhF-f8QbCJ-1" value="" style="ellipse;whiteSpace=wrap;html=1;fillColor=#000000;" parent="1" vertex="1">
          <mxGeometry x="110" y="310" width="20" height="20" as="geometry" />
        </mxCell>
        <mxCell id="EyjOnWCNiSzDaMFuredk-2" value="" style="ellipse;whiteSpace=wrap;html=1;fillColor=#000000;" vertex="1" parent="1">
          <mxGeometry x="310" y="310" width="20" height="20" as="geometry" />
        </mxCell>
        <mxCell id="EyjOnWCNiSzDaMFuredk-3" value="" style="ellipse;whiteSpace=wrap;html=1;fillColor=#000000;" vertex="1" parent="1">
          <mxGeometry x="210" y="150" width="20" height="20" as="geometry" />
        </mxCell>
        <mxCell id="EyjOnWCNiSzDaMFuredk-4" value="" style="endArrow=none;html=1;rounded=0;exitX=1;exitY=0;exitDx=0;exitDy=0;strokeWidth=4;" edge="1" parent="1" source="0u_ndoLw2zuhF-f8QbCJ-1" target="EyjOnWCNiSzDaMFuredk-3">
          <mxGeometry width="50" height="50" relative="1" as="geometry">
            <mxPoint x="390" y="470" as="sourcePoint" />
            <mxPoint x="440" y="420" as="targetPoint" />
          </mxGeometry>
        </mxCell>
        <mxCell id="EyjOnWCNiSzDaMFuredk-5" value="" style="endArrow=none;html=1;rounded=0;exitX=0;exitY=0;exitDx=0;exitDy=0;strokeWidth=4;entryX=1;entryY=1;entryDx=0;entryDy=0;" edge="1" parent="1" source="EyjOnWCNiSzDaMFuredk-2" target="EyjOnWCNiSzDaMFuredk-3">
          <mxGeometry width="50" height="50" relative="1" as="geometry">
            <mxPoint x="137" y="323" as="sourcePoint" />
            <mxPoint x="225" y="179" as="targetPoint" />
          </mxGeometry>
        </mxCell>
        <mxCell id="EyjOnWCNiSzDaMFuredk-6" value="&lt;font style=&quot;font-size: 24px;&quot;&gt;X&lt;sub&gt;1&lt;/sub&gt;&lt;/font&gt;" style="text;html=1;align=center;verticalAlign=middle;whiteSpace=wrap;rounded=0;" vertex="1" parent="1">
          <mxGeometry x="90" y="340" width="60" height="30" as="geometry" />
        </mxCell>
        <mxCell id="EyjOnWCNiSzDaMFuredk-7" value="&lt;font style=&quot;font-size: 24px;&quot;&gt;X&lt;sub&gt;2&lt;/sub&gt;&lt;/font&gt;" style="text;html=1;align=center;verticalAlign=middle;whiteSpace=wrap;rounded=0;" vertex="1" parent="1">
          <mxGeometry x="190" y="110" width="60" height="30" as="geometry" />
        </mxCell>
        <mxCell id="EyjOnWCNiSzDaMFuredk-8" value="&lt;font style=&quot;font-size: 24px;&quot;&gt;X&lt;sub&gt;3&lt;/sub&gt;&lt;/font&gt;" style="text;html=1;align=center;verticalAlign=middle;whiteSpace=wrap;rounded=0;" vertex="1" parent="1">
          <mxGeometry x="290" y="340" width="60" height="30" as="geometry" />
        </mxCell>
        <mxCell id="EyjOnWCNiSzDaMFuredk-9" value="&lt;span style=&quot;font-size: 24px;&quot;&gt;(a)&lt;/span&gt;" style="text;html=1;align=center;verticalAlign=middle;whiteSpace=wrap;rounded=0;" vertex="1" parent="1">
          <mxGeometry x="60" y="110" width="60" height="30" as="geometry" />
        </mxCell>
        <mxCell id="EyjOnWCNiSzDaMFuredk-10" value="" style="ellipse;whiteSpace=wrap;html=1;fillColor=#000000;" vertex="1" parent="1">
          <mxGeometry x="480" y="310" width="20" height="20" as="geometry" />
        </mxCell>
        <mxCell id="EyjOnWCNiSzDaMFuredk-11" value="" style="ellipse;whiteSpace=wrap;html=1;fillColor=#000000;" vertex="1" parent="1">
          <mxGeometry x="680" y="310" width="20" height="20" as="geometry" />
        </mxCell>
        <mxCell id="EyjOnWCNiSzDaMFuredk-12" value="" style="ellipse;whiteSpace=wrap;html=1;fillColor=#000000;" vertex="1" parent="1">
          <mxGeometry x="580" y="150" width="20" height="20" as="geometry" />
        </mxCell>
        <mxCell id="EyjOnWCNiSzDaMFuredk-14" value="" style="endArrow=none;html=1;rounded=0;exitX=0;exitY=0;exitDx=0;exitDy=0;strokeWidth=4;entryX=1;entryY=1;entryDx=0;entryDy=0;" edge="1" parent="1" source="EyjOnWCNiSzDaMFuredk-11" target="EyjOnWCNiSzDaMFuredk-12">
          <mxGeometry width="50" height="50" relative="1" as="geometry">
            <mxPoint x="507" y="323" as="sourcePoint" />
            <mxPoint x="595" y="179" as="targetPoint" />
          </mxGeometry>
        </mxCell>
        <mxCell id="EyjOnWCNiSzDaMFuredk-15" value="&lt;font style=&quot;font-size: 24px;&quot;&gt;X&lt;sub&gt;1&lt;/sub&gt;&lt;/font&gt;" style="text;html=1;align=center;verticalAlign=middle;whiteSpace=wrap;rounded=0;" vertex="1" parent="1">
          <mxGeometry x="460" y="340" width="60" height="30" as="geometry" />
        </mxCell>
        <mxCell id="EyjOnWCNiSzDaMFuredk-16" value="&lt;font style=&quot;font-size: 24px;&quot;&gt;X&lt;sub&gt;2&lt;/sub&gt;&lt;/font&gt;" style="text;html=1;align=center;verticalAlign=middle;whiteSpace=wrap;rounded=0;" vertex="1" parent="1">
          <mxGeometry x="560" y="110" width="60" height="30" as="geometry" />
        </mxCell>
        <mxCell id="EyjOnWCNiSzDaMFuredk-17" value="&lt;font style=&quot;font-size: 24px;&quot;&gt;X&lt;sub&gt;3&lt;/sub&gt;&lt;/font&gt;" style="text;html=1;align=center;verticalAlign=middle;whiteSpace=wrap;rounded=0;" vertex="1" parent="1">
          <mxGeometry x="660" y="340" width="60" height="30" as="geometry" />
        </mxCell>
        <mxCell id="EyjOnWCNiSzDaMFuredk-18" value="&lt;span style=&quot;font-size: 24px;&quot;&gt;(b)&lt;/span&gt;" style="text;html=1;align=center;verticalAlign=middle;whiteSpace=wrap;rounded=0;" vertex="1" parent="1">
          <mxGeometry x="430" y="110" width="60" height="30" as="geometry" />
        </mxCell>
        <mxCell id="EyjOnWCNiSzDaMFuredk-19" value="" style="ellipse;whiteSpace=wrap;html=1;fillColor=#000000;" vertex="1" parent="1">
          <mxGeometry x="840" y="310" width="20" height="20" as="geometry" />
        </mxCell>
        <mxCell id="EyjOnWCNiSzDaMFuredk-20" value="" style="ellipse;whiteSpace=wrap;html=1;fillColor=#000000;" vertex="1" parent="1">
          <mxGeometry x="1040" y="310" width="20" height="20" as="geometry" />
        </mxCell>
        <mxCell id="EyjOnWCNiSzDaMFuredk-21" value="" style="ellipse;whiteSpace=wrap;html=1;fillColor=#000000;" vertex="1" parent="1">
          <mxGeometry x="940" y="150" width="20" height="20" as="geometry" />
        </mxCell>
        <mxCell id="EyjOnWCNiSzDaMFuredk-23" value="&lt;font style=&quot;font-size: 24px;&quot;&gt;X&lt;sub&gt;1&lt;/sub&gt;&lt;/font&gt;" style="text;html=1;align=center;verticalAlign=middle;whiteSpace=wrap;rounded=0;" vertex="1" parent="1">
          <mxGeometry x="820" y="340" width="60" height="30" as="geometry" />
        </mxCell>
        <mxCell id="EyjOnWCNiSzDaMFuredk-24" value="&lt;font style=&quot;font-size: 24px;&quot;&gt;X&lt;sub&gt;2&lt;/sub&gt;&lt;/font&gt;" style="text;html=1;align=center;verticalAlign=middle;whiteSpace=wrap;rounded=0;" vertex="1" parent="1">
          <mxGeometry x="920" y="110" width="60" height="30" as="geometry" />
        </mxCell>
        <mxCell id="EyjOnWCNiSzDaMFuredk-25" value="&lt;font style=&quot;font-size: 24px;&quot;&gt;X&lt;sub&gt;3&lt;/sub&gt;&lt;/font&gt;" style="text;html=1;align=center;verticalAlign=middle;whiteSpace=wrap;rounded=0;" vertex="1" parent="1">
          <mxGeometry x="1020" y="340" width="60" height="30" as="geometry" />
        </mxCell>
        <mxCell id="EyjOnWCNiSzDaMFuredk-26" value="&lt;span style=&quot;font-size: 24px;&quot;&gt;(c)&lt;/span&gt;" style="text;html=1;align=center;verticalAlign=middle;whiteSpace=wrap;rounded=0;" vertex="1" parent="1">
          <mxGeometry x="790" y="110" width="60" height="30" as="geometry" />
        </mxCell>
      </root>
    </mxGraphModel>
  </diagram>
</mxfile>
